<svg width="512" height="512" viewBox="0 0 512 512" fill="none" xmlns="http://www.w3.org/2000/svg">
<rect width="512" height="512" fill="#0E1F5E"/>
<path d="M278.07 431H200.336L93.6953 297.406V431H34.5156V150.922H93.6953V269.477L193.305 150.922H268.109L155.609 282.953L278.07 431ZM382.562 434.906C351.964 434.906 326.638 425.792 306.586 407.562C286.534 389.333 276.508 366.221 276.508 338.227H334.906C334.906 350.466 339.333 360.362 348.188 367.914C357.042 375.336 368.5 379.047 382.562 379.047C395.583 379.047 406.13 376.247 414.203 370.648C422.406 365.049 426.508 357.693 426.508 348.578C426.508 343.37 424.815 338.812 421.43 334.906C418.044 331 413.487 327.81 407.758 325.336C402.159 322.862 395.648 320.648 388.227 318.695C380.935 316.612 373.188 314.529 364.984 312.445C356.911 310.232 348.773 307.823 340.57 305.219C332.497 302.615 324.75 299.229 317.328 295.062C310.036 290.896 303.526 286.078 297.797 280.609C292.198 275.01 287.706 267.914 284.32 259.32C280.935 250.596 279.242 240.766 279.242 229.828C279.242 205.87 288.357 186.078 306.586 170.453C324.945 154.828 347.992 147.016 375.727 147.016C389.138 147.016 401.443 148.708 412.641 152.094C423.839 155.349 433.344 159.906 441.156 165.766C448.969 171.495 455.544 178.331 460.883 186.273C466.221 194.086 470.128 202.549 472.602 211.664C475.206 220.648 476.508 230.154 476.508 240.18H415.375C415.115 229.242 411.208 220.323 403.656 213.422C396.234 206.521 386.273 203.07 373.773 203.07C362.576 203.07 353.656 205.414 347.016 210.102C340.505 214.789 337.25 221.234 337.25 229.438C337.25 234.385 338.943 238.682 342.328 242.328C345.714 245.844 350.271 248.773 356 251.117C361.729 253.331 368.24 255.414 375.531 257.367C382.953 259.19 390.766 261.143 398.969 263.227C407.172 265.31 415.375 267.654 423.578 270.258C431.781 272.862 439.529 276.312 446.82 280.609C454.242 284.906 460.818 289.984 466.547 295.844C472.276 301.573 476.833 308.93 480.219 317.914C483.604 326.898 485.297 337.12 485.297 348.578C485.297 373.448 475.531 394.086 456 410.492C436.599 426.768 412.12 434.906 382.562 434.906Z" fill="white"/>
</svg>
